# xmcd
#
# Track frame offsets:
#	150
#	21832
#	45007
#	60850
#	79210
#	99877
#	129897
#	157605
#	185395
#	202222
#	223767
#	224467
#	246735
#	272172
#
# Disc length: 4269 seconds
#
# Revision: 1
# Processed by: cddbd v1.5.1PL2 Copyright (c) Steve Scherf et al.
# Submitted via: audiograbber 1.83.01
#
DISCID=bc10ab0e
DTITLE=Buckwheat - Alive
DYEAR=1996
DGENRE=Pop
TTITLE0=Long train running
TTITLE1=Derick's tune
TTITLE2=Ain't no sunshine
TTITLE3=Look what you have done
TTITLE4=Love epedemic
TTITLE5=Reggea Medley
TTITLE6=Sexmachine
TTITLE7=Use me
TTITLE8=Could you be loved
TTITLE9=I wish
TTITLE10=Interlude
TTITLE11=Why did you do it
TTITLE12=Forever man
TTITLE13=Dr Feel good
EXTD=
EXTT0=
EXTT1=
EXTT2=
EXTT3=
EXTT4=
EXTT5=
EXTT6=
EXTT7=
EXTT8=
EXTT9=
EXTT10=
EXTT11=
EXTT12=
EXTT13=
PLAYORDER=
